<svg xmlns="http://www.w3.org/2000/svg" xmlns:xlink="http://www.w3.org/1999/xlink" width="500" zoomAndPan="magnify" viewBox="0 0 375 374.999991" height="500" preserveAspectRatio="xMidYMid meet" version="1.0"><defs><g/><clipPath id="35ea8d0970"><path d="M 122 132.636719 L 253 132.636719 L 253 251.136719 L 122 251.136719 Z M 122 132.636719 " clip-rule="nonzero"/></clipPath><clipPath id="d54edfa3c1"><path d="M 112.5 211 L 120 211 L 120 238 L 112.5 238 Z M 112.5 211 " clip-rule="nonzero"/></clipPath><clipPath id="4fe30ec671"><path d="M 255 211 L 262.5 211 L 262.5 238 L 255 238 Z M 255 211 " clip-rule="nonzero"/></clipPath></defs><g clip-path="url(#35ea8d0970)"><path fill="#000000" d="M 252.144531 208.363281 C 252.582031 202.164062 253.734375 170.945312 234.839844 150.414062 C 223.6875 138.296875 207.832031 132.34375 187.707031 132.738281 C 167.589844 132.359375 151.722656 138.296875 140.570312 150.414062 C 122.15625 170.425781 122.78125 200.585938 123.230469 207.84375 C 122.964844 208.847656 122.820312 209.902344 122.820312 210.992188 L 122.820312 238.832031 C 122.820312 245.582031 128.273438 251.050781 135.003906 251.050781 L 143.464844 251.050781 C 150.191406 251.050781 155.644531 245.582031 155.644531 238.832031 L 155.644531 210.992188 C 155.644531 204.242188 150.191406 198.769531 143.464844 198.769531 L 135.003906 198.769531 C 134.085938 198.769531 133.191406 198.878906 132.332031 199.070312 C 132.792969 187.96875 135.476562 169.433594 147.316406 156.597656 C 156.636719 146.496094 170.21875 141.539062 187.613281 141.90625 L 187.707031 141.910156 L 187.800781 141.90625 C 205.203125 141.558594 218.777344 146.496094 228.09375 156.597656 C 239.949219 169.449219 242.625 188.011719 243.082031 199.105469 C 242.171875 198.890625 241.226562 198.769531 240.25 198.769531 L 231.789062 198.769531 C 225.058594 198.769531 219.605469 204.242188 219.605469 210.992188 L 219.605469 238.832031 C 219.605469 245.582031 225.058594 251.050781 231.789062 251.050781 L 240.25 251.050781 C 246.976562 251.050781 252.433594 245.582031 252.433594 238.832031 L 252.433594 210.992188 C 252.433594 210.089844 252.332031 209.210938 252.144531 208.363281 Z M 252.144531 208.363281 " fill-opacity="1" fill-rule="nonzero"/></g><g clip-path="url(#d54edfa3c1)"><path fill="#000000" d="M 119.859375 211.671875 L 112.5 216 L 112.5 232.550781 L 119.859375 237.386719 " fill-opacity="1" fill-rule="nonzero"/></g><g clip-path="url(#4fe30ec671)"><path fill="#000000" d="M 255.140625 211.671875 L 262.5 216 L 262.5 232.550781 L 255.140625 237.386719 " fill-opacity="1" fill-rule="nonzero"/></g><g fill="#000000" fill-opacity="1"><g transform="translate(111.729772, 179.931737)"><g><path d="M 8.53125 2.078125 C 8.082031 3.367188 7.535156 4.550781 6.890625 5.625 L 1.359375 3.71875 C 1.566406 3.351562 1.785156 2.972656 2.015625 2.578125 C 2.253906 2.179688 2.457031 1.734375 2.625 1.234375 C 3.039062 0.046875 2.976562 -0.914062 2.4375 -1.65625 C 1.90625 -2.40625 0.78125 -3.070312 -0.9375 -3.65625 L -25.296875 -12.046875 L -22.84375 -19.203125 L 0.90625 -11.03125 C 4.476562 -9.800781 6.910156 -8.085938 8.203125 -5.890625 C 9.492188 -3.703125 9.601562 -1.046875 8.53125 2.078125 Z M 8.53125 2.078125 "/></g></g></g><g fill="#000000" fill-opacity="1"><g transform="translate(114.091093, 169.417961)"><g><path d="M 10.6875 -17.015625 L 5.53125 -18.640625 L 0.71875 -10.96875 L 4.390625 -7 L 0 0 L -18.84375 -22.546875 L -13.5 -31.0625 L 15.046875 -23.984375 Z M -0.515625 -20.59375 L -5.03125 -22 C -6.039062 -22.3125 -7.332031 -22.722656 -8.90625 -23.234375 C -10.476562 -23.753906 -11.59375 -24.144531 -12.25 -24.40625 C -11.769531 -23.96875 -10.988281 -23.207031 -9.90625 -22.125 C -8.832031 -21.050781 -6.753906 -18.867188 -3.671875 -15.578125 Z M -0.515625 -20.59375 "/></g></g></g><g fill="#000000" fill-opacity="1"><g transform="translate(126.762827, 148.561063)"><g><path d="M -2.9375 -26.765625 C -4.28125 -25.585938 -4.84375 -24.113281 -4.625 -22.34375 C -4.414062 -20.582031 -3.46875 -18.734375 -1.78125 -16.796875 C 1.75 -12.753906 5.050781 -12.078125 8.125 -14.765625 C 9.050781 -15.566406 9.835938 -16.476562 10.484375 -17.5 C 11.128906 -18.519531 11.734375 -19.59375 12.296875 -20.71875 L 16.46875 -15.9375 C 15.394531 -13.632812 13.753906 -11.519531 11.546875 -9.59375 C 8.378906 -6.820312 5.148438 -5.617188 1.859375 -5.984375 C -1.421875 -6.347656 -4.578125 -8.265625 -7.609375 -11.734375 C -9.503906 -13.910156 -10.765625 -16.171875 -11.390625 -18.515625 C -12.015625 -20.867188 -11.941406 -23.160156 -11.171875 -25.390625 C -10.410156 -27.617188 -8.992188 -29.640625 -6.921875 -31.453125 C -4.648438 -33.429688 -2.054688 -34.832031 0.859375 -35.65625 L 3.015625 -29.671875 C 1.929688 -29.359375 0.894531 -28.988281 -0.09375 -28.5625 C -1.09375 -28.132812 -2.039062 -27.535156 -2.9375 -26.765625 Z M -2.9375 -26.765625 "/></g></g></g><g fill="#000000" fill-opacity="1"><g transform="translate(142.557237, 133.906159)"><g><path d="M 24.3125 -11.28125 L 16.59375 -7.703125 L 7.125 -15.046875 L 5.65625 -12.890625 L 9.578125 -4.4375 L 2.734375 -1.265625 L -8.984375 -26.53125 L -2.140625 -29.703125 L 2.953125 -18.71875 C 2.992188 -19.570312 3.195312 -20.976562 3.5625 -22.9375 L 5.265625 -33.140625 L 12.734375 -36.609375 L 10.015625 -21.59375 Z M 24.3125 -11.28125 "/></g></g></g><g fill="#000000" fill-opacity="1"><g transform="translate(164.409145, 124.319944)"><g><path d="M 2.59375 -29.171875 L 4.09375 -19.1875 L -0.984375 -18.015625 L -4.015625 -27.65625 Z M 2.59375 -29.171875 "/></g></g></g><g fill="#000000" fill-opacity="1"><g transform="translate(172.903833, 121.598494)"><g><path d="M 20.859375 -9.328125 C 20.921875 -7.597656 20.539062 -6.046875 19.71875 -4.671875 C 18.90625 -3.296875 17.6875 -2.203125 16.0625 -1.390625 C 14.445312 -0.585938 12.523438 -0.140625 10.296875 -0.046875 C 8.453125 0.0234375 6.894531 -0.0390625 5.625 -0.25 C 4.363281 -0.457031 3.039062 -0.859375 1.65625 -1.453125 L 1.390625 -8.15625 C 2.835938 -7.46875 4.347656 -6.953125 5.921875 -6.609375 C 7.492188 -6.265625 8.921875 -6.117188 10.203125 -6.171875 C 11.316406 -6.210938 12.125 -6.4375 12.625 -6.84375 C 13.132812 -7.25 13.375 -7.757812 13.34375 -8.375 C 13.332031 -8.75 13.210938 -9.070312 12.984375 -9.34375 C 12.765625 -9.625 12.414062 -9.898438 11.9375 -10.171875 C 11.46875 -10.441406 10.21875 -10.988281 8.1875 -11.8125 C 6.332031 -12.5625 4.9375 -13.304688 4 -14.046875 C 3.0625 -14.785156 2.351562 -15.644531 1.875 -16.625 C 1.394531 -17.601562 1.128906 -18.78125 1.078125 -20.15625 C 0.960938 -22.71875 1.804688 -24.75 3.609375 -26.25 C 5.421875 -27.757812 7.953125 -28.582031 11.203125 -28.71875 C 14.085938 -28.832031 17.054688 -28.289062 20.109375 -27.09375 L 18.046875 -21.203125 C 15.390625 -22.285156 13.117188 -22.785156 11.234375 -22.703125 C 10.253906 -22.660156 9.550781 -22.457031 9.125 -22.09375 C 8.695312 -21.738281 8.492188 -21.3125 8.515625 -20.8125 C 8.535156 -20.257812 8.832031 -19.773438 9.40625 -19.359375 C 9.988281 -18.953125 11.554688 -18.234375 14.109375 -17.203125 C 16.554688 -16.222656 18.269531 -15.132812 19.25 -13.9375 C 20.238281 -12.738281 20.773438 -11.203125 20.859375 -9.328125 Z M 20.859375 -9.328125 "/></g></g></g><g fill="#000000" fill-opacity="1"><g transform="translate(192.900514, 121.094122)"><g/></g></g><g fill="#000000" fill-opacity="1"><g transform="translate(200.656811, 121.3833)"><g><path d="M 22.796875 -1.5 C 22.265625 0.144531 21.375 1.472656 20.125 2.484375 C 18.875 3.492188 17.347656 4.09375 15.546875 4.28125 C 13.753906 4.476562 11.800781 4.234375 9.6875 3.546875 C 7.914062 2.972656 6.472656 2.363281 5.359375 1.71875 C 4.242188 1.082031 3.144531 0.25 2.0625 -0.78125 L 4.140625 -7.15625 C 5.265625 -6.007812 6.5 -5 7.84375 -4.125 C 9.1875 -3.257812 10.472656 -2.625 11.703125 -2.21875 C 12.765625 -1.875 13.601562 -1.800781 14.21875 -2 C 14.832031 -2.207031 15.234375 -2.609375 15.421875 -3.203125 C 15.546875 -3.554688 15.550781 -3.898438 15.4375 -4.234375 C 15.332031 -4.578125 15.101562 -4.957031 14.75 -5.375 C 14.394531 -5.789062 13.410156 -6.742188 11.796875 -8.234375 C 10.304688 -9.578125 9.25 -10.753906 8.625 -11.765625 C 8.007812 -12.785156 7.644531 -13.835938 7.53125 -14.921875 C 7.425781 -16.015625 7.585938 -17.210938 8.015625 -18.515625 C 8.804688 -20.953125 10.3125 -22.566406 12.53125 -23.359375 C 14.75 -24.148438 17.40625 -24.039062 20.5 -23.03125 C 23.25 -22.132812 25.847656 -20.59375 28.296875 -18.40625 L 24.296875 -13.59375 C 22.179688 -15.519531 20.226562 -16.773438 18.4375 -17.359375 C 17.5 -17.660156 16.769531 -17.71875 16.25 -17.53125 C 15.726562 -17.351562 15.390625 -17.023438 15.234375 -16.546875 C 15.066406 -16.023438 15.179688 -15.46875 15.578125 -14.875 C 15.972656 -14.289062 17.1875 -13.070312 19.21875 -11.21875 C 21.164062 -9.445312 22.394531 -7.832031 22.90625 -6.375 C 23.414062 -4.914062 23.378906 -3.289062 22.796875 -1.5 Z M 22.796875 -1.5 "/></g></g></g><g fill="#000000" fill-opacity="1"><g transform="translate(219.398903, 127.648493)"><g><path d="M 2.625 1.46875 L 16.234375 -22.828125 L 22.828125 -19.140625 L 9.21875 5.15625 Z M 2.625 1.46875 "/></g></g></g><g fill="#000000" fill-opacity="1"><g transform="translate(229.257857, 132.321077)"><g><path d="M 11.59375 9.96875 L 5.890625 5.0625 L 20.03125 -11.375 L 14.875 -15.8125 L 18.890625 -20.484375 L 34.890625 -6.71875 L 30.875 -2.046875 L 25.734375 -6.46875 Z M 11.59375 9.96875 "/></g></g></g><g fill="#000000" fill-opacity="1"><g transform="translate(244.427256, 144.968615)"><g><path d="M 11.328125 15.90625 L 1.75 2.453125 L 24.4375 -13.6875 L 34.015625 -0.234375 L 29.09375 3.265625 L 23.875 -4.0625 L 20.296875 -1.515625 L 25.125 5.28125 L 20.21875 8.765625 L 15.390625 1.96875 L 11.09375 5.03125 L 16.3125 12.359375 Z M 11.328125 15.90625 "/></g></g></g><g fill="#000000" fill-opacity="1"><g transform="translate(255.333791, 159.501395)"><g><path d="M 15.71875 16.578125 C 14.101562 17.210938 12.515625 17.367188 10.953125 17.046875 C 9.390625 16.734375 7.957031 15.945312 6.65625 14.6875 C 5.351562 13.4375 4.289062 11.773438 3.46875 9.703125 C 2.78125 7.984375 2.320312 6.488281 2.09375 5.21875 C 1.875 3.957031 1.816406 2.578125 1.921875 1.078125 L 8.140625 -1.390625 C 7.972656 0.203125 7.988281 1.796875 8.1875 3.390625 C 8.382812 4.984375 8.722656 6.378906 9.203125 7.578125 C 9.609375 8.617188 10.085938 9.3125 10.640625 9.65625 C 11.191406 10 11.75 10.054688 12.3125 9.828125 C 12.664062 9.691406 12.9375 9.472656 13.125 9.171875 C 13.320312 8.867188 13.46875 8.445312 13.5625 7.90625 C 13.664062 7.363281 13.765625 6 13.859375 3.8125 C 13.953125 1.8125 14.191406 0.25 14.578125 -0.875 C 14.960938 -2.007812 15.535156 -2.960938 16.296875 -3.734375 C 17.066406 -4.515625 18.09375 -5.160156 19.375 -5.671875 C 21.75 -6.617188 23.945312 -6.488281 25.96875 -5.28125 C 28 -4.082031 29.617188 -1.96875 30.828125 1.0625 C 31.890625 3.738281 32.359375 6.710938 32.234375 9.984375 L 25.984375 10 C 26.117188 7.144531 25.835938 4.84375 25.140625 3.09375 C 24.785156 2.175781 24.363281 1.570312 23.875 1.28125 C 23.394531 1 22.921875 0.953125 22.453125 1.140625 C 21.941406 1.335938 21.585938 1.78125 21.390625 2.46875 C 21.203125 3.15625 21.039062 4.867188 20.90625 7.609375 C 20.800781 10.242188 20.347656 12.222656 19.546875 13.546875 C 18.742188 14.867188 17.46875 15.878906 15.71875 16.578125 Z M 15.71875 16.578125 "/></g></g></g><g fill="#000000" fill-opacity="1"><g transform="translate(49.178542, 285.386787)"><g><path d="M 16.21875 0 L 16.1875 -10.203125 L 11.125 -1.765625 L 9.859375 -1.765625 L 4.796875 -10.078125 L 4.796875 0 L 2.0625 0 L 2.0625 -15.40625 L 4.421875 -15.40625 L 10.53125 -5.1875 L 16.546875 -15.40625 L 18.890625 -15.40625 L 18.921875 0 Z M 16.21875 0 "/></g></g></g><g fill="#000000" fill-opacity="1"><g transform="translate(73.836796, 285.386787)"><g><path d="M 8.6875 0.21875 C 6.5625 0.21875 4.90625 -0.375 3.71875 -1.5625 C 2.53125 -2.757812 1.9375 -4.472656 1.9375 -6.703125 L 1.9375 -15.40625 L 4.796875 -15.40625 L 4.796875 -6.8125 C 4.796875 -3.789062 6.101562 -2.28125 8.71875 -2.28125 C 11.3125 -2.28125 12.609375 -3.789062 12.609375 -6.8125 L 12.609375 -15.40625 L 15.421875 -15.40625 L 15.421875 -6.703125 C 15.421875 -4.472656 14.828125 -2.757812 13.640625 -1.5625 C 12.460938 -0.375 10.8125 0.21875 8.6875 0.21875 Z M 8.6875 0.21875 "/></g></g></g><g fill="#000000" fill-opacity="1"><g transform="translate(94.843699, 285.386787)"><g><path d="M 6.84375 0.21875 C 5.65625 0.21875 4.503906 0.0507812 3.390625 -0.28125 C 2.285156 -0.625 1.410156 -1.070312 0.765625 -1.625 L 1.765625 -3.84375 C 2.390625 -3.351562 3.160156 -2.945312 4.078125 -2.625 C 4.992188 -2.3125 5.914062 -2.15625 6.84375 -2.15625 C 7.988281 -2.15625 8.84375 -2.335938 9.40625 -2.703125 C 9.96875 -3.066406 10.25 -3.550781 10.25 -4.15625 C 10.25 -4.59375 10.09375 -4.953125 9.78125 -5.234375 C 9.46875 -5.523438 9.066406 -5.75 8.578125 -5.90625 C 8.097656 -6.070312 7.4375 -6.257812 6.59375 -6.46875 C 5.425781 -6.75 4.476562 -7.023438 3.75 -7.296875 C 3.019531 -7.578125 2.394531 -8.015625 1.875 -8.609375 C 1.351562 -9.203125 1.09375 -10.003906 1.09375 -11.015625 C 1.09375 -11.867188 1.320312 -12.644531 1.78125 -13.34375 C 2.25 -14.039062 2.945312 -14.59375 3.875 -15 C 4.8125 -15.414062 5.953125 -15.625 7.296875 -15.625 C 8.242188 -15.625 9.171875 -15.503906 10.078125 -15.265625 C 10.984375 -15.035156 11.769531 -14.695312 12.4375 -14.25 L 11.53125 -12.03125 C 10.851562 -12.425781 10.144531 -12.726562 9.40625 -12.9375 C 8.675781 -13.144531 7.96875 -13.25 7.28125 -13.25 C 6.15625 -13.25 5.316406 -13.054688 4.765625 -12.671875 C 4.210938 -12.285156 3.9375 -11.78125 3.9375 -11.15625 C 3.9375 -10.71875 4.09375 -10.359375 4.40625 -10.078125 C 4.726562 -9.796875 5.128906 -9.570312 5.609375 -9.40625 C 6.097656 -9.25 6.757812 -9.066406 7.59375 -8.859375 C 8.738281 -8.597656 9.675781 -8.320312 10.40625 -8.03125 C 11.132812 -7.75 11.757812 -7.316406 12.28125 -6.734375 C 12.800781 -6.148438 13.0625 -5.359375 13.0625 -4.359375 C 13.0625 -3.503906 12.832031 -2.734375 12.375 -2.046875 C 11.914062 -1.359375 11.210938 -0.804688 10.265625 -0.390625 C 9.328125 0.015625 8.1875 0.21875 6.84375 0.21875 Z M 6.84375 0.21875 "/></g></g></g><g fill="#000000" fill-opacity="1"><g transform="translate(112.331225, 285.386787)"><g><path d="M 2.0625 -15.40625 L 4.921875 -15.40625 L 4.921875 0 L 2.0625 0 Z M 2.0625 -15.40625 "/></g></g></g><g fill="#000000" fill-opacity="1"><g transform="translate(122.999968, 285.386787)"><g><path d="M 9.203125 0.21875 C 7.640625 0.21875 6.234375 -0.117188 4.984375 -0.796875 C 3.734375 -1.484375 2.75 -2.425781 2.03125 -3.625 C 1.320312 -4.832031 0.96875 -6.191406 0.96875 -7.703125 C 0.96875 -9.210938 1.328125 -10.566406 2.046875 -11.765625 C 2.765625 -12.972656 3.75 -13.914062 5 -14.59375 C 6.257812 -15.28125 7.664062 -15.625 9.21875 -15.625 C 10.476562 -15.625 11.628906 -15.398438 12.671875 -14.953125 C 13.710938 -14.515625 14.59375 -13.878906 15.3125 -13.046875 L 13.46875 -11.3125 C 12.351562 -12.507812 10.976562 -13.109375 9.34375 -13.109375 C 8.289062 -13.109375 7.347656 -12.875 6.515625 -12.40625 C 5.679688 -11.945312 5.023438 -11.304688 4.546875 -10.484375 C 4.078125 -9.671875 3.84375 -8.742188 3.84375 -7.703125 C 3.84375 -6.660156 4.078125 -5.726562 4.546875 -4.90625 C 5.023438 -4.082031 5.679688 -3.4375 6.515625 -2.96875 C 7.347656 -2.507812 8.289062 -2.28125 9.34375 -2.28125 C 10.976562 -2.28125 12.351562 -2.890625 13.46875 -4.109375 L 15.3125 -2.359375 C 14.59375 -1.515625 13.707031 -0.875 12.65625 -0.4375 C 11.613281 0 10.460938 0.21875 9.203125 0.21875 Z M 9.203125 0.21875 "/></g></g></g><g fill="#000000" fill-opacity="1"><g transform="translate(142.643109, 285.386787)"><g/></g></g><g fill="#000000" fill-opacity="1"><g transform="translate(152.36602, 285.386787)"><g><path d="M 5.1875 -12.984375 L 0.09375 -12.984375 L 0.09375 -15.40625 L 13.15625 -15.40625 L 13.15625 -12.984375 L 8.046875 -12.984375 L 8.046875 0 L 5.1875 0 Z M 5.1875 -12.984375 "/></g></g></g><g fill="#000000" fill-opacity="1"><g transform="translate(169.25965, 285.386787)"><g><path d="M 9.265625 0.21875 C 7.691406 0.21875 6.273438 -0.117188 5.015625 -0.796875 C 3.753906 -1.484375 2.765625 -2.429688 2.046875 -3.640625 C 1.328125 -4.847656 0.96875 -6.203125 0.96875 -7.703125 C 0.96875 -9.191406 1.328125 -10.539062 2.046875 -11.75 C 2.765625 -12.96875 3.753906 -13.914062 5.015625 -14.59375 C 6.273438 -15.28125 7.691406 -15.625 9.265625 -15.625 C 10.828125 -15.625 12.238281 -15.28125 13.5 -14.59375 C 14.769531 -13.914062 15.765625 -12.972656 16.484375 -11.765625 C 17.203125 -10.566406 17.5625 -9.210938 17.5625 -7.703125 C 17.5625 -6.191406 17.203125 -4.832031 16.484375 -3.625 C 15.765625 -2.425781 14.769531 -1.484375 13.5 -0.796875 C 12.238281 -0.117188 10.828125 0.21875 9.265625 0.21875 Z M 9.265625 -2.28125 C 10.285156 -2.28125 11.207031 -2.507812 12.03125 -2.96875 C 12.851562 -3.4375 13.5 -4.082031 13.96875 -4.90625 C 14.4375 -5.738281 14.671875 -6.671875 14.671875 -7.703125 C 14.671875 -8.722656 14.4375 -9.644531 13.96875 -10.46875 C 13.5 -11.300781 12.851562 -11.945312 12.03125 -12.40625 C 11.207031 -12.875 10.285156 -13.109375 9.265625 -13.109375 C 8.234375 -13.109375 7.304688 -12.875 6.484375 -12.40625 C 5.671875 -11.945312 5.023438 -11.300781 4.546875 -10.46875 C 4.078125 -9.644531 3.84375 -8.722656 3.84375 -7.703125 C 3.84375 -6.671875 4.078125 -5.738281 4.546875 -4.90625 C 5.023438 -4.082031 5.671875 -3.4375 6.484375 -2.96875 C 7.304688 -2.507812 8.234375 -2.28125 9.265625 -2.28125 Z M 9.265625 -2.28125 "/></g></g></g><g fill="#000000" fill-opacity="1"><g transform="translate(191.432336, 285.386787)"><g/></g></g><g fill="#000000" fill-opacity="1"><g transform="translate(201.155247, 285.386787)"><g><path d="M 16.21875 0 L 16.1875 -10.203125 L 11.125 -1.765625 L 9.859375 -1.765625 L 4.796875 -10.078125 L 4.796875 0 L 2.0625 0 L 2.0625 -15.40625 L 4.421875 -15.40625 L 10.53125 -5.1875 L 16.546875 -15.40625 L 18.890625 -15.40625 L 18.921875 0 Z M 16.21875 0 "/></g></g></g><g fill="#000000" fill-opacity="1"><g transform="translate(225.813498, 285.386787)"><g><path d="M 8.71875 -5.4375 L 8.71875 0 L 5.859375 0 L 5.859375 -5.390625 L -0.203125 -15.40625 L 2.859375 -15.40625 L 7.375 -7.890625 L 11.921875 -15.40625 L 14.734375 -15.40625 Z M 8.71875 -5.4375 "/></g></g></g><g fill="#000000" fill-opacity="1"><g transform="translate(244.004899, 285.386787)"><g/></g></g><g fill="#000000" fill-opacity="1"><g transform="translate(253.727822, 285.386787)"><g><path d="M 13.625 -2.390625 L 13.625 0 L 2.0625 0 L 2.0625 -15.40625 L 13.3125 -15.40625 L 13.3125 -13 L 4.921875 -13 L 4.921875 -9 L 12.359375 -9 L 12.359375 -6.640625 L 4.921875 -6.640625 L 4.921875 -2.390625 Z M 13.625 -2.390625 "/></g></g></g><g fill="#000000" fill-opacity="1"><g transform="translate(272.117194, 285.386787)"><g><path d="M 12.0625 -3.5625 L 4.359375 -3.5625 L 2.84375 0 L -0.109375 0 L 6.8125 -15.40625 L 9.640625 -15.40625 L 16.59375 0 L 13.59375 0 Z M 11.109375 -5.8125 L 8.203125 -12.546875 L 5.328125 -5.8125 Z M 11.109375 -5.8125 "/></g></g></g><g fill="#000000" fill-opacity="1"><g transform="translate(292.24426, 285.386787)"><g><path d="M 12.140625 0 L 9 -4.515625 C 8.863281 -4.492188 8.664062 -4.484375 8.40625 -4.484375 L 4.921875 -4.484375 L 4.921875 0 L 2.0625 0 L 2.0625 -15.40625 L 8.40625 -15.40625 C 9.738281 -15.40625 10.898438 -15.179688 11.890625 -14.734375 C 12.878906 -14.296875 13.632812 -13.664062 14.15625 -12.84375 C 14.6875 -12.019531 14.953125 -11.046875 14.953125 -9.921875 C 14.953125 -8.765625 14.671875 -7.765625 14.109375 -6.921875 C 13.546875 -6.085938 12.738281 -5.46875 11.6875 -5.0625 L 15.21875 0 Z M 12.078125 -9.921875 C 12.078125 -10.898438 11.753906 -11.65625 11.109375 -12.1875 C 10.460938 -12.71875 9.515625 -12.984375 8.265625 -12.984375 L 4.921875 -12.984375 L 4.921875 -6.84375 L 8.265625 -6.84375 C 9.515625 -6.84375 10.460938 -7.109375 11.109375 -7.640625 C 11.753906 -8.179688 12.078125 -8.941406 12.078125 -9.921875 Z M 12.078125 -9.921875 "/></g></g></g><g fill="#000000" fill-opacity="1"><g transform="translate(311.975384, 285.386787)"><g><path d="M 6.84375 0.21875 C 5.65625 0.21875 4.503906 0.0507812 3.390625 -0.28125 C 2.285156 -0.625 1.410156 -1.070312 0.765625 -1.625 L 1.765625 -3.84375 C 2.390625 -3.351562 3.160156 -2.945312 4.078125 -2.625 C 4.992188 -2.3125 5.914062 -2.15625 6.84375 -2.15625 C 7.988281 -2.15625 8.84375 -2.335938 9.40625 -2.703125 C 9.96875 -3.066406 10.25 -3.550781 10.25 -4.15625 C 10.25 -4.59375 10.09375 -4.953125 9.78125 -5.234375 C 9.46875 -5.523438 9.066406 -5.75 8.578125 -5.90625 C 8.097656 -6.070312 7.4375 -6.257812 6.59375 -6.46875 C 5.425781 -6.75 4.476562 -7.023438 3.75 -7.296875 C 3.019531 -7.578125 2.394531 -8.015625 1.875 -8.609375 C 1.351562 -9.203125 1.09375 -10.003906 1.09375 -11.015625 C 1.09375 -11.867188 1.320312 -12.644531 1.78125 -13.34375 C 2.25 -14.039062 2.945312 -14.59375 3.875 -15 C 4.8125 -15.414062 5.953125 -15.625 7.296875 -15.625 C 8.242188 -15.625 9.171875 -15.503906 10.078125 -15.265625 C 10.984375 -15.035156 11.769531 -14.695312 12.4375 -14.25 L 11.53125 -12.03125 C 10.851562 -12.425781 10.144531 -12.726562 9.40625 -12.9375 C 8.675781 -13.144531 7.96875 -13.25 7.28125 -13.25 C 6.15625 -13.25 5.316406 -13.054688 4.765625 -12.671875 C 4.210938 -12.285156 3.9375 -11.78125 3.9375 -11.15625 C 3.9375 -10.71875 4.09375 -10.359375 4.40625 -10.078125 C 4.726562 -9.796875 5.128906 -9.570312 5.609375 -9.40625 C 6.097656 -9.25 6.757812 -9.066406 7.59375 -8.859375 C 8.738281 -8.597656 9.675781 -8.320312 10.40625 -8.03125 C 11.132812 -7.75 11.757812 -7.316406 12.28125 -6.734375 C 12.800781 -6.148438 13.0625 -5.359375 13.0625 -4.359375 C 13.0625 -3.503906 12.832031 -2.734375 12.375 -2.046875 C 11.914062 -1.359375 11.210938 -0.804688 10.265625 -0.390625 C 9.328125 0.015625 8.1875 0.21875 6.84375 0.21875 Z M 6.84375 0.21875 "/></g></g></g></svg>